<svg width="256" height="151" viewBox="0 0 256 151" fill="none" xmlns="http://www.w3.org/2000/svg">
<path d="M39.9672 28.902V29.102H40.5172C43.0672 29.102 43.1172 29.802 43.1172 32.352V50.452C43.1172 58.102 39.1172 63.052 32.5672 63.402C25.2172 63.802 18.9172 59.902 18.9172 50.002V32.352C18.9172 29.802 18.9172 29.102 21.4672 29.102H22.0172V28.902H14.3672V29.102H14.9172C17.4672 29.102 17.5172 29.802 17.5172 32.352V50.002C17.5172 60.352 23.8672 64.202 31.4672 64.202C40.4172 64.202 43.5172 57.002 43.5172 50.452V32.352C43.5172 29.802 43.5172 29.102 46.0672 29.102H46.6172V28.902H39.9672ZM44.7426 113.652C42.8926 113.652 41.5426 112.302 40.2926 110.402L30.1926 95.452L38.8926 82.102C40.3426 80.002 41.1426 79.102 42.8926 79.102H43.4426V78.902H36.8426V79.102H37.3426C39.7426 79.102 39.8926 80.052 38.6926 81.802L29.9426 95.052L20.9926 81.802C19.7426 80.002 19.3926 79.102 21.8426 79.102H22.4926V78.902H14.8426V79.102H15.3926C17.2426 79.102 18.6426 80.452 19.9426 82.352L29.1426 96.052L19.1926 110.702C17.7426 112.852 16.9426 113.652 15.1926 113.652H14.6426V113.902H21.1926V113.652H20.7426C18.2926 113.652 18.1926 112.702 19.3926 111.002L29.3926 96.402L39.1926 110.952C40.3926 112.802 40.7426 113.652 38.3426 113.652H37.6926V113.902H45.3426V113.652H44.7426Z" fill="url(#paint0_radial_741_4)"/>
<path d="M92.9789 54V54.2H93.5289C96.0789 54.2 96.1289 54.9 96.1289 57.45V75.55C96.1289 83.2 92.1289 88.15 85.5789 88.5C78.2289 88.9 71.9289 85 71.9289 75.1V57.45C71.9289 54.9 71.9289 54.2 74.4789 54.2H75.0289V54H67.3789V54.2H67.9289C70.4789 54.2 70.5289 54.9 70.5289 57.45V75.1C70.5289 85.45 76.8789 89.3 84.4789 89.3C93.4289 89.3 96.5289 82.1 96.5289 75.55V57.45C96.5289 54.9 96.5289 54.2 99.0789 54.2H99.6289V54H92.9789ZM87.508 104.25H88.058V104H80.458V104.25H81.008C83.508 104.25 83.558 104.9 83.558 107.45V135.5C83.558 138.05 83.508 138.75 81.008 138.75H80.458V139H88.058V138.75H87.508C84.958 138.75 84.958 138.05 84.958 135.5V107.45C84.958 104.9 84.958 104.25 87.508 104.25Z" fill="url(#paint1_radial_741_4)"/>
<path d="M149.564 3H136.464V3.25H137.014C139.564 3.25 139.564 3.9 139.564 6.45V34.5C139.564 37.05 139.564 37.75 137.014 37.75H136.464V38H149.564C161.914 38 169.264 30.4 169.264 20.5C169.264 10.55 161.914 3 149.564 3ZM149.464 37.6H140.964V3.4H149.464C161.414 3.4 167.514 11.3 167.514 20.5C167.514 29.65 161.414 37.6 149.464 37.6ZM164.532 78.15V83.6C164.532 86.15 164.182 87.6 161.482 87.6H144.432V70.3H156.132C158.682 70.3 158.982 71.7 158.982 74.25V75.35H159.332V64.85H158.982V65.95C158.982 68.5 158.682 69.9 156.132 69.9H144.432V53.4H160.582C163.282 53.4 163.632 54.8 163.632 57.35V62.8H163.982V53H139.882V53.25H140.432C142.982 53.25 143.032 53.9 143.032 56.45V84.5C143.032 87.05 142.982 87.75 140.432 87.75H139.882V88H164.882V78.15H164.532Z" fill="url(#paint2_radial_741_4)"/>
<path d="M194.366 66.8C187.816 64.55 183.716 62.75 184.666 57.2C185.316 53.2 189.566 50.85 194.266 51C200.666 51.25 203.916 54.35 203.916 59.1V60.95H204.266V50.05H203.916V50.75C203.916 53.1 203.966 53.45 203.566 53.6C202.416 54.05 200.566 51 194.316 50.7C189.766 50.5 184.716 52.75 183.716 57.85C182.866 62.3 184.766 65.3 191.966 67.75C201.516 71 206.566 72.8 205.616 78.8C204.816 83.95 200.166 86.15 194.366 85.85C187.866 85.5 181.766 82.8 181.766 78.05V76.15H181.416V87.1H181.766V86.4C181.766 84.05 181.716 83.1 182.316 82.95C183.716 82.7 187.566 86.3 194.866 86.3C201.866 86.3 206.216 82.75 206.866 78.1C207.716 72.35 204.566 70.3 194.366 66.8ZM216.544 51.25H217.094V51H209.494V51.25H210.044C212.544 51.25 212.594 51.9 212.594 54.45V82.5C212.594 85.05 212.544 85.75 210.044 85.75H209.494V86H217.094V85.75H216.544C213.994 85.75 213.994 85.05 213.994 82.5V54.45C213.994 51.9 213.994 51.25 216.544 51.25ZM240.678 69.35V69.6H247.428C249.928 69.6 249.978 70.3 249.978 72.8V80.65C247.378 83.85 242.828 85.9 238.178 85.9C228.928 85.9 221.178 79.3 220.928 67.85C220.728 58.35 227.928 51.2 236.378 51.05C244.378 50.9 250.028 55.1 250.028 60V61.35H250.378V51.45H250.028V52.1C250.028 53.8 250.078 54.8 249.378 54.8C247.928 54.9 245.128 50.7 237.128 50.65C226.578 50.55 218.928 59.2 219.378 69.5C219.778 79.55 227.428 85.9 236.578 86.25C245.928 86.6 249.428 81.5 250.828 81.95C251.078 82 251.128 82.2 251.128 82.6V86H251.378V72.8C251.378 70.3 251.378 69.6 253.928 69.6H254.478V69.35H240.678ZM247.586 101V101.2H248.136C250.686 101.2 250.686 101.9 250.686 104.45V133.35L224.886 101H220.836V101.2H221.386C223.936 101.2 223.986 101.9 223.986 104.45V132.5C223.986 135.05 223.936 135.75 221.386 135.75H220.836V136H227.486V135.75H226.936C224.386 135.75 224.386 135.05 224.386 132.5V102.7L250.686 136H251.086V104.45C251.086 101.9 251.136 101.2 253.636 101.2H254.236V101H247.586Z" fill="url(#paint3_radial_741_4)"/>
<path d="M119 58L120.568 65.6928L126.713 60.8075L122.97 67.7082L130.818 67.9162L123.514 70.7959L129.392 76L121.946 73.5112L123.104 81.2763L119 74.5836L114.896 81.2763L116.054 73.5112L108.608 76L114.486 70.7959L107.182 67.9162L115.03 67.7082L111.287 60.8075L117.432 65.6928L119 58Z" stroke="url(#paint4_radial_741_4)" stroke-width="0.66"/>
<defs>
<radialGradient id="paint0_radial_741_4" cx="0" cy="0" r="1" gradientUnits="userSpaceOnUse" gradientTransform="translate(29.9067 25.902) scale(29.9067 7.86175e+07)">
<stop stop-color="#9B7B49" stop-opacity="0.6"/>
<stop offset="1" stop-color="#CDAE7E" stop-opacity="0.15"/>
</radialGradient>
<radialGradient id="paint1_radial_741_4" cx="0" cy="0" r="1" gradientUnits="userSpaceOnUse" gradientTransform="translate(83.4363 51) scale(20.4363 7.86175e+07)">
<stop stop-color="#9B7B49" stop-opacity="0.6"/>
<stop offset="1" stop-color="#CDAE7E" stop-opacity="0.15"/>
</radialGradient>
<radialGradient id="paint2_radial_741_4" cx="0" cy="0" r="1" gradientUnits="userSpaceOnUse" gradientTransform="translate(152.91) scale(28.9098 7.86175e+07)">
<stop stop-color="#9B7B49" stop-opacity="0.6"/>
<stop offset="1" stop-color="#CDAE7E" stop-opacity="0.15"/>
</radialGradient>
<radialGradient id="paint3_radial_741_4" cx="0" cy="0" r="1" gradientUnits="userSpaceOnUse" gradientTransform="translate(205.343 48) scale(50.343 7.86175e+07)">
<stop stop-color="#9B7B49" stop-opacity="0.6"/>
<stop offset="1" stop-color="#CDAE7E" stop-opacity="0.15"/>
</radialGradient>
<radialGradient id="paint4_radial_741_4" cx="0" cy="0" r="1" gradientUnits="userSpaceOnUse" gradientTransform="translate(118.963 58) scale(11.9627 3.09315e+07)">
<stop stop-color="#9B7B49" stop-opacity="0.6"/>
<stop offset="1" stop-color="#CDAE7E" stop-opacity="0.15"/>
</radialGradient>
</defs>
</svg>
