<svg width="1016" height="1016" viewBox="0 0 1016 1016" fill="none" xmlns="http://www.w3.org/2000/svg">
<g clip-path="url(#clip0_740_2)">
<path d="M762.38 949.118C737.123 963.733 705.943 965.462 671.087 955.939C636.228 946.414 597.764 925.646 558.049 895.38C478.622 834.846 394.338 736.429 324.064 614.458C253.791 492.489 210.877 370.135 198.278 270.94C191.978 221.341 193.262 177.579 202.459 142.563C211.657 107.554 228.741 81.3596 254 66.7464C279.259 52.1331 310.44 50.4027 345.293 59.9266C380.152 69.4517 418.617 90.2185 458.333 120.486C537.76 181.018 622.044 279.435 692.318 401.406C762.59 523.375 805.504 645.729 818.104 744.924C824.404 794.523 823.12 838.288 813.921 873.301C804.726 908.311 787.64 934.505 762.38 949.118Z" stroke="#CDAE7E"/>
<path d="M828.127 903.84C805.46 922.232 774.934 928.83 739.022 924.887C703.104 920.943 661.872 906.462 617.922 882.793C530.023 835.458 431.411 751.464 342.963 642.01C254.514 532.558 193.029 418.438 165.099 322.44C151.132 274.438 145.57 231.014 149.188 194.989C152.806 158.967 165.593 130.418 188.258 112.025C210.924 93.6317 241.451 87.0349 277.363 90.9777C313.28 94.9209 354.512 109.402 398.465 133.071C486.364 180.407 584.974 264.401 673.423 373.854C761.87 483.306 823.357 597.426 851.287 693.424C865.252 741.426 870.816 784.851 867.198 820.876C863.58 856.897 850.793 885.448 828.127 903.84Z" stroke="#CDAE7E" stroke-opacity="0.9"/>
<path d="M885.994 848.816C866.478 870.535 837.358 881.836 801.273 883.57C765.182 885.307 722.195 877.467 675.091 860.979C580.885 828.005 470.375 760.504 365.93 666.264C261.482 572.024 182.939 468.948 140.366 378.509C119.078 333.288 106.806 291.269 104.754 255.12C102.705 218.976 110.878 188.774 130.392 167.055C149.909 145.334 179.029 134.034 215.116 132.298C251.206 130.563 294.191 138.403 341.297 154.89C435.504 187.864 546.013 255.367 650.459 349.605C754.904 443.845 833.448 546.921 876.021 637.36C897.308 682.581 909.582 724.6 911.632 760.749C913.682 796.893 905.51 827.095 885.994 848.816Z" stroke="#CDAE7E" stroke-opacity="0.8"/>
<path d="M934.556 785.393C918.671 809.903 891.673 825.63 856.303 833.002C820.926 840.372 777.247 839.368 728.148 830.468C629.953 812.667 510.267 763.32 392.396 686.614C274.524 609.908 180.855 520.414 124.688 437.762C96.6034 396.435 77.9214 356.857 70.2529 321.474C62.5862 286.095 65.9423 254.983 81.8277 230.473C97.7131 205.961 124.71 190.234 160.081 182.864C195.456 175.492 239.137 176.496 288.236 185.398C386.431 203.197 506.117 252.544 623.988 329.252C741.86 405.958 835.527 495.452 891.695 578.103C919.78 619.431 938.462 659.009 946.13 694.392C953.797 729.769 950.441 760.881 934.556 785.393Z" stroke="#CDAE7E" stroke-opacity="0.7"/>
<path d="M972.622 715.141C960.759 741.84 936.549 761.607 902.764 774.431C868.975 787.257 825.675 793.112 775.793 792.018C676.027 789.829 550.112 759.853 421.717 702.567C293.32 645.283 186.836 571.574 118.457 498.746C84.2664 462.328 59.6358 426.166 46.5379 392.421C33.4437 358.682 31.9005 327.428 43.7631 300.727C55.6275 274.027 79.8372 254.262 113.621 241.436C147.411 228.611 190.709 222.756 240.593 223.849C340.359 226.038 466.274 256.017 594.669 313.3C723.064 370.584 829.551 444.294 897.929 517.123C932.12 553.539 956.751 589.701 969.848 623.446C982.943 657.187 984.485 688.441 972.622 715.141Z" stroke="#CDAE7E" stroke-opacity="0.6"/>
<path d="M999.25 639.787C991.701 668.016 970.874 691.334 939.508 709.298C908.137 727.263 866.285 739.833 816.845 746.571C717.967 760.049 588.921 750.179 453.164 713.727C317.406 677.276 200.724 621.167 121.818 559.954C82.3645 529.346 52.3921 497.489 34.1873 466.212C15.9863 434.942 9.58403 404.313 17.1341 376.082C24.6824 347.851 45.5088 324.533 76.8751 306.572C108.245 288.605 150.098 276.035 199.538 269.296C298.416 255.819 427.462 265.688 563.219 302.141C698.977 338.593 815.659 394.701 894.564 455.915C934.019 486.524 963.991 518.379 982.195 549.655C1000.4 580.928 1006.8 611.556 999.25 639.787Z" stroke="#CDAE7E" stroke-opacity="0.5"/>
<path d="M1013.79 561.185C1010.74 590.251 993.809 616.547 965.633 639.206C937.453 661.866 898.078 680.843 850.299 695.25C754.742 724.061 625.744 734.541 485.968 719.82C346.191 705.097 222.187 667.971 134.698 619.88C90.9494 595.834 56.3728 569.069 33.5112 541.031C10.6514 512.997 -0.453227 483.749 2.59486 454.684C5.64478 425.617 22.5742 399.321 50.7504 376.664C78.9302 354.001 118.306 335.025 166.086 320.618C261.641 291.806 390.639 281.327 530.415 296.047C670.192 310.77 794.196 347.898 881.687 395.987C925.434 420.034 960.01 446.799 982.872 474.836C1005.73 502.87 1016.84 532.118 1013.79 561.185Z" stroke="#CDAE7E" stroke-opacity="0.4"/>
<path d="M1015.88 481.272C1017.4 510.458 1004.79 539.083 980.493 565.879C956.198 592.681 920.271 617.594 875.328 639.315C785.446 682.751 659.673 713.324 519.319 720.695C378.965 728.065 250.692 710.834 156.771 677.051C109.809 660.157 71.4793 639.143 44.522 615.035C17.5684 590.928 2.03464 563.781 0.507866 534.595C-1.01891 505.41 11.5979 476.784 35.8897 449.986C60.1851 423.187 96.1118 398.271 141.055 376.552C230.938 333.117 356.712 302.543 497.064 295.173C637.418 287.801 765.691 305.034 859.612 338.817C906.575 355.71 944.904 376.724 971.862 400.833C998.816 424.938 1014.35 452.086 1015.88 481.272Z" stroke="#CDAE7E" stroke-opacity="0.3"/>
<path d="M1005.46 402.015C1011.53 430.604 1003.54 460.854 983.725 491.129C963.913 521.408 932.318 551.647 891.319 580.145C809.324 637.137 689.871 687.05 552.398 716.331C414.922 745.613 285.538 748.703 187.5 730.058C138.479 720.734 97.3395 705.986 66.9515 686.402C36.5653 666.817 16.9851 642.44 10.9199 613.851C4.85652 585.264 12.8493 555.014 32.6592 524.738C52.4727 494.46 84.0668 464.219 125.066 435.723C207.062 378.732 326.513 328.819 463.988 299.536C601.464 270.255 730.848 267.166 828.886 285.81C877.907 295.134 919.045 309.882 949.434 329.467C979.82 349.051 999.4 373.428 1005.46 402.015Z" stroke="#FD0037" stroke-opacity="0.2"/>
<path d="M982.806 325.368C993.258 352.654 990.086 383.784 975.247 416.791C960.405 449.804 933.919 484.624 897.874 519.197C825.785 588.341 715.597 656.364 584.385 706.836C453.173 757.308 325.864 780.642 226.122 777.595C176.249 776.07 133.315 767.953 100.243 753.373C67.1735 738.793 44.0295 717.786 33.5771 690.501C23.1247 663.215 26.2967 632.083 41.1363 599.076C55.9777 566.064 82.4632 531.243 118.51 496.67C190.598 427.528 300.787 359.504 431.999 309.032C563.21 258.56 690.52 235.227 790.261 238.274C840.135 239.797 883.068 247.914 916.141 262.496C949.209 277.074 972.354 298.083 982.806 325.368Z" stroke="#CDAE7E" stroke-opacity="0.1"/>
</g>
<defs>
<clipPath id="clip0_740_2">
<rect width="1016" height="1016" fill="white" transform="translate(1016) rotate(90)"/>
</clipPath>
</defs>
</svg>
