<svg width="600" height="600" viewBox="0 0 600 600" fill="none" xmlns="http://www.w3.org/2000/svg">
<g opacity="0.4">
<path d="M541.283 160.204C549.288 174.067 550.235 191.181 545.019 210.312C539.802 229.445 528.427 250.557 511.849 272.355C478.693 315.95 424.787 362.211 357.98 400.782C291.174 439.353 224.157 462.907 169.825 469.822C142.658 473.28 118.688 472.575 99.5088 467.527C80.333 462.479 65.9857 453.102 57.9816 439.238C49.9775 425.374 49.0297 408.26 54.2462 389.13C59.4634 369.997 70.838 348.885 87.4164 327.086C120.572 283.491 174.478 237.23 241.285 198.659C308.091 160.089 375.108 136.535 429.44 129.619C456.607 126.161 480.578 126.866 499.756 131.915C518.932 136.962 533.279 146.34 541.283 160.204Z" stroke="#CDAE7E"/>
<path d="M516.483 124.118C526.557 136.559 530.171 153.314 528.011 173.025C525.851 192.739 517.919 215.37 504.955 239.493C479.028 287.738 433.022 341.863 373.071 390.409C313.121 438.956 250.614 472.703 198.033 488.033C171.741 495.699 147.956 498.752 128.224 496.766C108.494 494.78 92.8562 487.762 82.7818 475.322C72.7075 462.881 69.0942 446.126 71.2538 426.415C73.4136 406.701 81.3456 384.07 94.3098 359.946C120.237 311.701 166.243 257.577 226.194 209.03C286.144 160.484 348.651 126.736 401.232 111.406C427.524 103.741 451.309 100.687 471.041 102.673C490.771 104.659 506.409 111.677 516.483 124.118Z" stroke="#CDAE7E" stroke-opacity="0.9"/>
<path d="M486.345 92.3567C498.241 103.069 504.431 119.052 505.381 138.858C506.332 158.667 502.038 182.261 493.007 208.115C474.946 259.822 437.974 320.477 386.356 377.804C334.738 435.132 278.28 478.242 228.744 501.609C203.975 513.293 180.96 520.029 161.16 521.155C141.363 522.28 124.82 517.794 112.924 507.083C101.027 496.371 94.8369 480.388 93.8864 460.581C92.9358 440.772 97.2299 417.179 106.261 391.324C124.322 339.617 161.295 278.962 212.912 221.635C264.53 164.308 320.988 121.198 370.524 97.8308C395.293 86.1467 418.308 79.41 438.108 78.2848C457.905 77.1598 474.448 81.6451 486.345 92.3567Z" stroke="#CDAE7E" stroke-opacity="0.8"/>
<path d="M451.606 65.7018C465.031 74.4206 473.645 89.239 477.683 108.652C481.72 128.069 481.17 152.043 476.295 178.992C466.545 232.888 439.516 298.58 397.502 363.276C355.488 427.972 306.469 479.384 261.198 510.212C238.562 525.627 216.884 535.881 197.504 540.09C178.126 544.298 161.085 542.456 147.66 533.737C134.234 525.018 125.62 510.2 121.583 490.786C117.545 471.37 118.095 447.395 122.971 420.446C132.72 366.55 159.749 300.858 201.764 236.162C243.778 171.466 292.797 120.055 338.067 89.2267C360.704 73.8119 382.382 63.5578 401.762 59.3491C421.139 55.141 438.18 56.9831 451.606 65.7018Z" stroke="#CDAE7E" stroke-opacity="0.7"/>
<path d="M413.127 44.809C427.751 51.3201 438.578 64.6085 445.602 83.1517C452.627 101.697 455.834 125.463 455.235 152.842C454.036 207.6 437.617 276.711 406.24 347.183C374.864 417.656 334.491 476.102 294.601 513.633C274.654 532.399 254.847 545.918 236.364 553.107C217.884 560.294 200.765 561.141 186.14 554.63C171.516 548.118 160.69 534.83 153.665 516.287C146.64 497.741 143.433 473.976 144.032 446.596C145.231 391.838 161.651 322.727 193.027 252.255C224.403 181.783 264.776 123.336 304.667 85.8055C324.613 67.0394 344.42 53.5203 362.903 46.3317C381.384 39.1441 398.503 38.2978 413.127 44.809Z" stroke="#CDAE7E" stroke-opacity="0.6"/>
<path d="M371.853 30.1928C387.315 34.3361 400.087 45.7673 409.926 62.9834C419.766 80.2017 426.651 103.173 430.342 130.309C437.724 184.58 432.318 255.409 412.352 329.922C392.387 404.435 361.654 468.478 328.126 511.787C311.361 533.442 293.912 549.893 276.781 559.885C259.653 569.875 242.877 573.389 227.414 569.245C211.951 565.102 199.179 553.671 189.341 536.455C179.5 519.237 172.615 496.265 168.924 469.129C161.542 414.858 166.948 344.029 186.914 269.516C206.88 195.003 237.612 130.96 271.141 87.6516C287.906 65.9963 305.354 49.5451 322.485 39.5537C339.614 29.5635 356.39 26.0496 371.853 30.1928Z" stroke="#CDAE7E" stroke-opacity="0.5"/>
<path d="M328.801 22.2139C344.721 23.8872 359.124 33.1798 371.535 48.6447C383.947 64.1118 394.341 85.7231 402.232 111.948C418.013 164.396 423.753 235.199 415.69 311.918C407.626 388.637 387.291 456.699 360.95 504.719C347.779 528.731 333.119 547.709 317.762 560.257C302.407 572.804 286.387 578.899 270.467 577.226C254.546 575.552 240.143 566.26 227.733 550.795C215.32 535.328 204.926 513.716 197.035 487.491C181.254 435.044 175.514 364.241 183.577 287.522C191.641 210.803 211.977 142.741 238.317 94.72C251.488 70.7087 266.148 51.7306 281.505 39.1823C296.86 26.6356 312.88 20.5406 328.801 22.2139Z" stroke="#CDAE7E" stroke-opacity="0.4"/>
<path d="M285.03 21.068C301.016 20.2302 316.695 27.1553 331.372 40.4884C346.052 53.8233 359.698 73.5426 371.595 98.2106C395.386 147.544 412.132 216.577 416.169 293.613C420.206 370.649 410.768 441.054 392.264 492.604C383.011 518.38 371.501 539.418 358.296 554.214C345.092 569.008 330.223 577.534 314.237 578.372C298.251 579.21 282.572 572.285 267.894 558.952C253.215 545.617 239.568 525.898 227.672 501.23C203.881 451.896 187.135 382.863 183.098 305.828C179.06 228.792 188.499 158.387 207.003 106.837C216.256 81.0601 227.766 60.0224 240.971 45.2261C254.174 30.4319 269.044 21.9058 285.03 21.068Z" stroke="#CDAE7E" stroke-opacity="0.3"/>
<path d="M241.618 26.7824C257.277 23.4541 273.846 27.8412 290.428 38.7141C307.013 49.5884 323.576 66.9302 339.185 89.4333C370.401 134.437 397.74 200.001 413.778 275.456C429.817 350.912 431.509 421.927 421.297 475.737C416.19 502.643 408.112 525.223 397.385 541.902C386.658 558.58 373.306 569.327 357.647 572.656C341.989 575.984 325.42 571.597 308.837 560.724C292.253 549.849 275.689 532.508 260.081 510.005C228.865 465 201.526 399.437 185.487 323.981C169.449 248.525 167.757 177.51 177.969 123.7C183.076 96.7944 191.154 74.2151 201.881 57.5354C212.608 40.8579 225.96 30.1107 241.618 26.7824Z" stroke="#CDAE7E" stroke-opacity="0.2"/>
<path d="M199.637 39.2186C214.582 33.4818 231.633 35.2229 249.712 43.3679C267.794 51.5139 286.866 66.0511 305.803 85.8354C343.675 125.403 380.933 185.882 408.578 257.9C436.223 329.918 449.004 399.794 447.335 454.539C446.5 481.913 442.054 505.478 434.068 523.63C426.082 541.781 414.576 554.484 399.631 560.221C384.686 565.958 367.634 564.217 349.555 556.072C331.473 547.926 312.401 533.389 293.464 513.604C255.593 474.037 218.334 413.558 190.689 341.54C163.044 269.522 150.264 199.646 151.933 144.901C152.767 117.527 157.213 93.9619 165.2 75.8093C173.185 57.6591 184.692 44.9555 199.637 39.2186Z" stroke="#CDAE7E" stroke-opacity="0.1"/>
</g>
</svg>
