<svg width="1028" height="1028" viewBox="0 0 1028 1028" fill="none" xmlns="http://www.w3.org/2000/svg">
<g clip-path="url(#clip0_768_14)">
<circle cx="514" cy="514" r="513.5" stroke="#CDAE7E"/>
<path d="M768.38 955.118C743.123 969.733 711.943 971.462 677.087 961.939C642.228 952.414 603.764 931.646 564.049 901.38C484.622 840.846 400.338 742.429 330.064 620.458C259.791 498.489 216.877 376.135 204.278 276.94C197.978 227.341 199.262 183.579 208.459 148.563C217.657 113.554 234.741 87.3596 260 72.7464C285.259 58.1331 316.44 56.4027 351.293 65.9266C386.152 75.4517 424.617 96.2185 464.333 126.486C543.76 187.018 628.044 285.435 698.318 407.406C768.59 529.375 811.504 651.729 824.104 750.924C830.404 800.523 829.12 844.288 819.921 879.301C810.726 914.311 793.64 940.505 768.38 955.118Z" stroke="#CDAE7E"/>
<path d="M834.127 909.84C811.46 928.232 780.934 934.83 745.022 930.887C709.104 926.943 667.872 912.462 623.922 888.793C536.023 841.458 437.411 757.464 348.963 648.01C260.514 538.558 199.029 424.438 171.099 328.44C157.132 280.438 151.57 237.014 155.188 200.989C158.806 164.967 171.593 136.418 194.258 118.025C216.924 99.6317 247.451 93.0349 283.363 96.9777C319.28 100.921 360.512 115.402 404.465 139.071C492.364 186.407 590.974 270.401 679.423 379.854C767.87 489.306 829.357 603.426 857.287 699.424C871.252 747.426 876.816 790.851 873.198 826.876C869.58 862.897 856.793 891.448 834.127 909.84Z" stroke="#CDAE7E" stroke-opacity="0.9"/>
<path d="M891.994 854.816C872.478 876.535 843.358 887.836 807.273 889.57C771.182 891.307 728.195 883.467 681.091 866.979C586.885 834.005 476.375 766.504 371.93 672.264C267.482 578.024 188.939 474.948 146.366 384.509C125.078 339.288 112.806 297.269 110.754 261.12C108.705 224.976 116.878 194.774 136.392 173.055C155.909 151.334 185.029 140.034 221.116 138.298C257.206 136.563 300.191 144.403 347.297 160.89C441.504 193.864 552.013 261.367 656.459 355.605C760.904 449.845 839.448 552.921 882.021 643.36C903.308 688.581 915.582 730.6 917.632 766.749C919.682 802.893 911.51 833.095 891.994 854.816Z" stroke="#CDAE7E" stroke-opacity="0.8"/>
<path d="M940.556 791.393C924.671 815.903 897.673 831.63 862.303 839.002C826.926 846.372 783.247 845.368 734.148 836.468C635.953 818.667 516.267 769.32 398.396 692.614C280.524 615.908 186.855 526.414 130.688 443.762C102.603 402.435 83.9214 362.857 76.2529 327.474C68.5862 292.095 71.9423 260.983 87.8277 236.473C103.713 211.961 130.71 196.234 166.081 188.864C201.456 181.492 245.137 182.496 294.236 191.398C392.431 209.197 512.117 258.544 629.988 335.252C747.86 411.958 841.527 501.452 897.695 584.103C925.78 625.431 944.462 665.009 952.13 700.392C959.797 735.769 956.441 766.881 940.556 791.393Z" stroke="#CDAE7E" stroke-opacity="0.7"/>
<path d="M978.622 721.141C966.759 747.84 942.549 767.607 908.764 780.431C874.975 793.257 831.675 799.112 781.793 798.018C682.027 795.829 556.112 765.853 427.717 708.567C299.32 651.283 192.836 577.574 124.457 504.746C90.2664 468.328 65.6358 432.166 52.5379 398.421C39.4437 364.682 37.9005 333.428 49.7631 306.727C61.6275 280.027 85.8372 260.262 119.621 247.436C153.411 234.611 196.709 228.756 246.593 229.849C346.359 232.038 472.274 262.017 600.669 319.3C729.064 376.584 835.551 450.294 903.929 523.123C938.12 559.539 962.751 595.701 975.848 629.446C988.943 663.187 990.485 694.441 978.622 721.141Z" stroke="#CDAE7E" stroke-opacity="0.6"/>
<path d="M1005.25 645.787C997.701 674.016 976.874 697.334 945.508 715.298C914.137 733.263 872.285 745.833 822.845 752.571C723.967 766.049 594.921 756.179 459.164 719.727C323.406 683.276 206.724 627.167 127.818 565.954C88.3645 535.346 58.3921 503.489 40.1873 472.212C21.9863 440.942 15.584 410.313 23.1341 382.082C30.6824 353.851 51.5088 330.533 82.8751 312.572C114.245 294.605 156.098 282.035 205.538 275.296C304.416 261.819 433.462 271.688 569.219 308.141C704.977 344.593 821.659 400.701 900.564 461.915C940.019 492.524 969.991 524.379 988.195 555.655C1006.4 586.928 1012.8 617.556 1005.25 645.787Z" stroke="#CDAE7E" stroke-opacity="0.5"/>
<path d="M1019.79 567.185C1016.74 596.251 999.809 622.547 971.633 645.206C943.453 667.866 904.078 686.843 856.299 701.25C760.742 730.061 631.744 740.541 491.968 725.82C352.191 711.097 228.187 673.971 140.698 625.88C96.9494 601.834 62.3728 575.069 39.5112 547.031C16.6514 518.997 5.54677 489.749 8.59486 460.684C11.6448 431.617 28.5742 405.321 56.7504 382.664C84.9302 360.001 124.306 341.025 172.086 326.618C267.641 297.806 396.639 287.327 536.415 302.047C676.192 316.77 800.196 353.898 887.687 401.987C931.434 426.034 966.01 452.799 988.872 480.836C1011.73 508.87 1022.84 538.118 1019.79 567.185Z" stroke="#CDAE7E" stroke-opacity="0.4"/>
<path d="M1021.88 487.272C1023.4 516.458 1010.79 545.083 986.493 571.879C962.198 598.681 926.271 623.594 881.328 645.315C791.446 688.751 665.673 719.324 525.319 726.695C384.965 734.065 256.692 716.834 162.771 683.051C115.809 666.157 77.4793 645.143 50.522 621.035C23.5684 596.928 8.03464 569.781 6.50787 540.595C4.98109 511.41 17.5979 482.784 41.8897 455.986C66.1851 429.187 102.112 404.271 147.055 382.552C236.938 339.117 362.712 308.543 503.064 301.173C643.418 293.801 771.691 311.034 865.612 344.817C912.575 361.71 950.904 382.724 977.862 406.833C1004.82 430.938 1020.35 458.086 1021.88 487.272Z" stroke="#CDAE7E" stroke-opacity="0.3"/>
<path d="M1011.46 408.015C1017.53 436.604 1009.54 466.854 989.725 497.129C969.913 527.408 938.318 557.647 897.319 586.145C815.324 643.137 695.871 693.05 558.398 722.331C420.922 751.613 291.538 754.703 193.5 736.058C144.479 726.734 103.339 711.986 72.9515 692.402C42.5653 672.817 22.9851 648.44 16.9199 619.851C10.8565 591.264 18.8493 561.014 38.6592 530.738C58.4727 500.46 90.0668 470.219 131.066 441.723C213.062 384.732 332.513 334.819 469.988 305.536C607.464 276.255 736.848 273.166 834.886 291.81C883.907 301.134 925.045 315.882 955.434 335.467C985.82 355.051 1005.4 379.428 1011.46 408.015Z" stroke="#FD0037" stroke-opacity="0.2"/>
<path d="M988.806 331.368C999.258 358.654 996.086 389.784 981.247 422.791C966.405 455.804 939.919 490.624 903.874 525.197C831.785 594.341 721.597 662.364 590.385 712.836C459.173 763.308 331.864 786.642 232.122 783.595C182.249 782.07 139.315 773.953 106.243 759.373C73.1735 744.793 50.0295 723.786 39.5771 696.501C29.1247 669.215 32.2967 638.083 47.1363 605.076C61.9777 572.064 88.4632 537.243 124.51 502.67C196.598 433.528 306.787 365.504 437.999 315.032C569.21 264.56 696.52 241.227 796.261 244.274C846.135 245.797 889.068 253.914 922.141 268.496C955.209 283.074 978.354 304.083 988.806 331.368Z" stroke="#CDAE7E" stroke-opacity="0.1"/>
</g>
<defs>
<clipPath id="clip0_768_14">
<rect width="1028" height="1028" fill="white" transform="translate(1028 -6.10352e-05) rotate(90)"/>
</clipPath>
</defs>
</svg>
