<svg width="120" height="120" viewBox="0 0 120 120" fill="none" xmlns="http://www.w3.org/2000/svg">
<path d="M27.2246 85V35H43.8996C48.3354 35 52.5894 36.7621 55.726 39.8986C58.8625 43.0352 60.6246 47.2893 60.6246 51.725C60.6246 56.1607 58.8625 60.4148 55.726 63.5514C52.5894 66.6879 48.3354 68.45 43.8996 68.45H27.2246M79.2246 52.5C78.1621 52.5 77.11 52.7097 76.1287 53.1171C75.1473 53.5244 74.256 54.1215 73.5059 54.8739C72.7557 55.6264 72.1614 56.5196 71.7571 57.5022C71.3528 58.4847 71.1463 59.5375 71.1496 60.6C71.1463 61.6625 71.3528 62.7153 71.7571 63.6979C72.1614 64.6804 72.7557 65.5736 73.5059 66.3261C74.256 67.0785 75.1473 67.6756 76.1287 68.0829C77.11 68.4903 78.1621 68.7 79.2246 68.7H81.9746M81.9746 68.725H84.6996C86.8412 68.725 88.8951 69.5758 90.4095 71.0901C91.9239 72.6045 92.7746 74.6584 92.7746 76.8C92.7912 77.8709 92.5946 78.9344 92.1962 79.9286C91.7978 80.9228 91.2056 81.8277 90.4542 82.5909C89.7027 83.354 88.8069 83.96 87.8189 84.3736C86.831 84.7872 85.7706 85.0001 84.6996 85M91.9996 55.25C89.7746 53.375 87.3746 52.525 81.9996 52.525H79.2496M71.9246 82.175C74.1496 84.05 76.5496 84.9 81.9246 84.9H84.6496" stroke="url(#paint0_radial_707_1714)" stroke-width="1.25" stroke-linecap="round" stroke-linejoin="round"/>
<defs>
<radialGradient id="paint0_radial_707_1714" cx="0" cy="0" r="1" gradientUnits="userSpaceOnUse" gradientTransform="translate(60.46 59.7766) rotate(142.184) scale(40.9066 1.19689e+07)">
<stop stop-color="#CDAE7E" stop-opacity="0.3"/>
<stop offset="0.515625" stop-color="#CDAE7E"/>
<stop offset="1" stop-color="#CDAE7E" stop-opacity="0.3"/>
</radialGradient>
</defs>
</svg>
