<svg width="120" height="120" viewBox="0 0 120 120" fill="none" xmlns="http://www.w3.org/2000/svg">
<path d="M49.9786 68.6757H58.9518V50.3379H49.9759C45.0405 50.3379 41 54.4208 41 59.5004C41 64.579 45.041 68.6639 49.9786 68.6757ZM49.9786 68.6757V68.6757ZM58.9518 80.8384C58.9518 85.918 54.9112 90.001 49.9759 90.001C45.0405 90.001 41 85.918 41 80.8384C41 75.7588 45.0405 71.6758 49.9759 71.6758H58.9518V80.8384ZM41 38.1626C41 33.083 45.0405 29 49.9759 29H58.9518V47.3378H49.9759C45.0424 47.3378 41 43.2441 41 38.1626ZM61.9531 47.3251V29H70.9291C75.8645 29 79.905 33.083 79.905 38.1626C79.905 43.2421 75.8645 47.3251 70.9291 47.3251H61.9531ZM79.905 59.4877C79.905 64.5673 75.8645 68.6503 70.9291 68.6503C65.9936 68.6503 61.9531 64.5673 61.9531 59.4877C61.9531 54.4081 65.9936 50.3252 70.9291 50.3252C75.8645 50.3252 79.905 54.4081 79.905 59.4877Z" stroke="url(#paint0_radial_707_1695)"/>
<defs>
<radialGradient id="paint0_radial_707_1695" cx="0" cy="0" r="1" gradientUnits="userSpaceOnUse" gradientTransform="translate(60.7254 59.2279) rotate(122.079) scale(36.1133 9.81691e+06)">
<stop stop-color="#CDAE7E" stop-opacity="0.3"/>
<stop offset="0.515625" stop-color="#CDAE7E"/>
<stop offset="1" stop-color="#CDAE7E" stop-opacity="0.3"/>
</radialGradient>
</defs>
</svg>
