<svg width="120" height="120" viewBox="0 0 120 120" fill="none" xmlns="http://www.w3.org/2000/svg">
<path d="M44.2247 86.1078C44.4688 86.3519 44.8645 86.3519 45.1086 86.1078C45.3527 85.8637 45.3527 85.468 45.1086 85.2239L44.2247 86.1078ZM18 58.9992L17.5581 58.5572C17.314 58.8013 17.314 59.197 17.5581 59.4411L18 58.9992ZM45.1086 32.7745C45.3527 32.5304 45.3527 32.1347 45.1086 31.8906C44.8645 31.6465 44.4688 31.6465 44.2247 31.8906L45.1086 32.7745ZM75.3348 85.2239C75.0907 85.468 75.0907 85.8637 75.3348 86.1078C75.5788 86.3519 75.9746 86.3519 76.2186 86.1078L75.3348 85.2239ZM102.443 58.9992L102.885 59.4411C103.129 59.197 103.129 58.8013 102.885 58.5572L102.443 58.9992ZM76.2186 31.8906C75.9746 31.6465 75.5788 31.6465 75.3348 31.8906C75.0907 32.1347 75.0907 32.5304 75.3348 32.7745L76.2186 31.8906ZM45.1086 85.2239L18.4419 58.5572L17.5581 59.4411L44.2247 86.1078L45.1086 85.2239ZM18.4419 59.4411L45.1086 32.7745L44.2247 31.8906L17.5581 58.5572L18.4419 59.4411ZM76.2186 86.1078L102.885 59.4411L102.001 58.5572L75.3348 85.2239L76.2186 86.1078ZM102.885 58.5572L76.2186 31.8906L75.3348 32.7745L102.001 59.4411L102.885 58.5572ZM72.4048 20.8092L47.4048 98.8092L48.5952 99.1908L73.5952 21.1908L72.4048 20.8092Z" fill="url(#paint0_radial_707_1717)"/>
<defs>
<radialGradient id="paint0_radial_707_1717" cx="0" cy="0" r="1" gradientUnits="userSpaceOnUse" gradientTransform="translate(60.8141 59.6515) rotate(136.775) scale(57.1302 1.72224e+07)">
<stop stop-color="#CDAE7E" stop-opacity="0.3"/>
<stop offset="0.515625" stop-color="#CDAE7E"/>
<stop offset="1" stop-color="#CDAE7E" stop-opacity="0.3"/>
</radialGradient>
</defs>
</svg>
